<svg width="233" height="15" viewBox="0 0 233 15" fill="none" xmlns="http://www.w3.org/2000/svg"><path d="M2.771 9.12c.202.062.227.125.176.238-.365 1.27-.843 2.353-1.497 3.321-.05.076-.076.1-.126.1s-.088-.024-.164-.075l-.981-.629c-.202-.125-.214-.176-.101-.314.63-.893 1.12-1.748 1.422-2.893.05-.164.063-.151.252-.076l1.007.327h.012zM9.881.666c1.46 0 1.99-.025 2.102-.025.151 0 .164.012.164.163 0 .088-.025.553-.025 1.598v3.232c0 1.044.025 1.51.025 1.598 0 .163-.013.176-.164.176-.1 0-.629-.025-2.101-.025h-5.79c-1.46 0-1.988.025-2.101.025-.151 0-.164-.013-.164-.176 0-.088.025-.554.025-1.598V2.403c0-1.045-.025-1.51-.025-1.598 0-.15.013-.163.164-.163.1 0 .63.025 2.102.025h5.789zM6.158 3.409V1.975H3.413v1.434h2.744zm0 2.679V4.604H3.413v1.484h2.744zm-.73 5.17c0 .352.05.516.226.616.214.126.655.164 1.372.164.982 0 1.573-.05 1.9-.302.252-.201.39-.692.403-1.51.315.176.73.327 1.158.453.377.1.39.126.352.516-.15 1.082-.428 1.597-.893 1.874-.58.327-1.435.403-3.046.403-1.372 0-2.114-.101-2.517-.352-.302-.202-.529-.529-.529-1.284V9.623c0-.44-.012-.818-.075-1.258.503 0 1.082.05 1.535.088.202.025.277.1.277.176 0 .088-.012.15-.075.251-.063.126-.088.315-.088.655v1.723zm1.371-3.686c.139-.1.202-.088.315 0 .63.466 1.284 1.145 1.825 1.799.088.126.063.176-.088.302l-.83.667c-.164.125-.215.138-.303.012-.478-.73-1.145-1.434-1.724-1.937-.063-.063-.076-.088-.076-.138 0-.05.026-.088.126-.151l.755-.554zm.881-5.61v1.434h2.882V1.962H7.68zm2.882 2.642H7.68v1.484h2.882V4.604zm1.221 3.987c.164-.088.214-.075.302.05.73.931 1.284 1.862 1.762 2.868.063.139.05.202-.126.29l-1.007.54a.447.447 0 01-.201.076c-.05 0-.075-.025-.1-.1-.454-1.12-.982-1.988-1.687-2.97-.076-.125-.076-.137.1-.238l.957-.503V8.59zm11.101-5.937c.139.063.24.164.24.277 0 .088-.051.239-.127.428-.063.176-.138.83-.138 1.484 0 .968.025 2.05.277 3.434.214 1.195.604 2.214 1.233 2.214.478 0 .856-.529 1.447-2.101.328.528.667.88.97 1.157.176.164.176.352.1.554-.579 1.534-1.51 2.352-2.567 2.352-1.183 0-2.417-1.384-2.82-3.937a27.669 27.669 0 01-.364-4.39c0-.83-.025-1.283-.176-1.975.73.088 1.46.277 1.913.503h.012zm6.997.956s.126-.063.164-.063c.063 0 .1.025.163.088 1.372 1.195 2.58 3.27 2.958 5.157.05.202-.05.252-.164.328-.39.251-.767.465-1.183.603-.176.063-.289.013-.314-.163-.516-2.151-1.284-3.724-2.82-5.27.58-.365.957-.58 1.196-.692v.012zm20.466-.012c0-.856-.013-1.334-.076-1.912.554.012 1.045.05 1.573.1.151.013.24.076.24.164 0 .1-.051.214-.076.302-.076.2-.1.478-.1 1.484v2.126c0 .905.024 1.346.024 1.434 0 .163-.012.176-.15.176h-1.26c-.163 0-.175-.013-.175-.176v-.554H47.25v4.642h3.574v-1.145c0-.88-.013-1.333-.088-1.912.579.013 1.07.05 1.585.1.139.013.227.089.227.164 0 .1-.05.214-.075.302-.076.201-.101.478-.101 1.484v1.824c0 .843.025 1.233.025 1.334 0 .138-.013.15-.164.15H51c-.151 0-.164-.012-.164-.15v-.692h-8.583v.767c0 .138-.012.151-.163.151h-1.233c-.164 0-.177-.013-.177-.151 0-.1.026-.478.026-1.333v-1.988c0-.855-.013-1.308-.089-1.899.58.013 1.07.05 1.586.1.151.013.252.076.252.164 0 .1-.063.214-.088.302-.076.176-.101.478-.101 1.308v1.12h3.398V6.742h-2.907v.616c0 .151-.013.164-.164.164h-1.258c-.151 0-.164-.013-.164-.164 0-.1.025-.528.025-1.433V3.66c0-.88-.012-1.333-.088-1.937.58.013 1.07.05 1.586.1.151.014.227.089.227.177 0 .1-.05.176-.076.302-.076.176-.088.478-.088 1.333v1.648h2.907V1.975c0-.893-.025-1.359-.1-1.95.578.013 1.132.063 1.66.126.139.013.227.063.227.15 0 .102-.05.177-.088.303-.063.201-.075.402-.075 1.383V5.27h3.095V3.585l-.037.013zm13.719-1.296c.076-.453.151-1.044.151-1.673.78.163 1.209.277 1.813.503.15.05.239.164.239.302a.31.31 0 01-.101.226 1.964 1.964 0 00-.302.579c-.201.616-.352 1.182-.541 1.811.403-.05.856-.063 1.208-.063 1.41 0 2.165.981 2.165 2.906 0 1.623-.302 3.635-.819 4.717-.44.969-1.157 1.421-2.038 1.421-.73 0-1.234-.075-1.573-.226-.177-.075-.277-.201-.277-.428-.05-.478-.076-.905-.29-1.409a4.05 4.05 0 001.737.39c.503 0 .73-.176.97-.805.314-.842.59-2.276.59-3.76 0-1.057-.2-1.384-.855-1.384-.365 0-.83.05-1.271.1-.995 2.893-1.863 4.982-3.033 7.095-.088.2-.214.226-.39.138-.277-.138-.856-.503-1.045-.667-.076-.075-.126-.138-.126-.226 0-.05.013-.1.063-.164 1.208-2.1 1.989-3.698 2.756-5.911-.591.088-1.07.176-1.485.251-.39.076-.63.164-.83.24-.214.075-.39.05-.479-.202a13.14 13.14 0 01-.465-1.56c.667 0 1.334-.05 1.988-.1.63-.063 1.196-.139 1.787-.227.24-.855.353-1.384.453-1.9v.026zm5.978 1.006c.1-.063.176-.025.29.076 1.032.968 1.95 2.213 2.504 3.66.063.138.05.214-.063.302-.252.239-.83.604-1.133.755-.15.075-.302.062-.352-.126-.604-1.585-1.384-2.88-2.48-3.912.378-.252.819-.554 1.222-.767l.012.012zm.403-2.113c.075-.063.138-.05.226.025.466.365 1.007.969 1.435 1.61.063.088.063.164-.05.24l-.63.465c-.1.075-.176.062-.251-.05-.453-.693-.931-1.271-1.523-1.75l.806-.553-.013.013zm1.346-.981c.089-.063.139-.05.227.025.554.428 1.108 1.031 1.435 1.56.063.088.075.176-.05.276l-.605.466c-.126.088-.201.05-.251-.05a7.043 7.043 0 00-1.51-1.736l.754-.541zm12.298 6.188c0 2.83.025 3.283.025 3.384 0 .151-.012.164-.176.164h-1.107c-.151 0-.164-.013-.164-.164v-.805h-1.22v1.447c0 .15-.013.163-.164.163h-1.146c-.138 0-.15-.012-.15-.163 0-.101.024-.667.024-3.686V4.415c0-2.138-.025-2.73-.025-2.818 0-.15.013-.163.151-.163.101 0 .39.025 1.347.025h1.145c.931 0 1.234-.025 1.309-.025.164 0 .176.013.176.163 0 .089-.025.655-.025 2.365v2.44zm-2.643-3.484v4.617h1.22V2.918h-1.22zm5.286 5.233c-1.435 0-1.913.025-2.001.025-.164 0-.164-.013-.164-.163V6.868c0-.151 0-.164.164-.164.088 0 .579.026 2 .026h.894c.05-.516.063-1.082.063-1.749v-.365h-.667c-1.359 0-1.825.013-1.913.013-.163 0-.176-.013-.176-.164v-1.12c0-.15.013-.163.176-.163.088 0 .554.026 1.913.026h1.9c.403-.755.806-1.598 1.058-2.277.075-.227.163-.579.226-.931.504.126 1.058.29 1.46.465.126.05.202.101.202.214 0 .126-.063.176-.151.277-.101.1-.214.239-.315.503a32.455 32.455 0 01-.931 1.761h.025c1.372 0 1.825-.025 1.913-.025.15 0 .163.013.163.163v1.12c0 .15-.012.163-.163.163-.088 0-.541-.012-1.913-.012h-1.259v.314c0 .654-.025 1.258-.075 1.8h1.762c1.434 0 1.938-.026 2.026-.026.15 0 .164.013.164.163v1.145c0 .151-.013.164-.164.164-.088 0-.592-.026-2.026-.026H89.44c.767 1.761 2.152 3.12 4.153 3.95-.277.302-.554.73-.768 1.132-.126.24-.176.327-.29.327-.087 0-.2-.05-.364-.15-1.599-1.007-2.82-2.353-3.575-3.913-.176.503-.39.931-.629 1.296-.742 1.145-1.9 2.05-3.712 2.78a1.071 1.071 0 01-.353.088c-.138 0-.201-.088-.327-.352a4.256 4.256 0 00-.73-.969c1.875-.528 3.033-1.296 3.813-2.415.328-.453.58-1.031.743-1.799h-.68l.013.013zM86.382.138c.176-.075.226-.063.314.05.453.617.843 1.271 1.158 1.976.063.138.063.176-.138.276l-.932.44c-.214.089-.239.089-.302-.075a10.933 10.933 0 00-1.145-2.05c-.076-.1-.063-.164.126-.24l.919-.364V.138zm20.943 1.397a.371.371 0 01.126.239c0 .138-.076.226-.214.289-.176.088-.403.226-.73.528-1.296 1.157-2.957 2.717-4.115 3.925-.139.163-.202.251-.202.327 0 .088.063.163.202.276 1.963 1.422 4.002 3.057 5.613 4.755.063.076.1.138.1.201s-.025.101-.1.177c-.353.377-.781.817-1.045 1.043-.088.076-.151.126-.214.126s-.101-.05-.176-.138c-1.749-1.962-3.436-3.535-5.5-5.094-.579-.44-.805-.768-.805-1.27 0-.504.277-.831.742-1.334 1.284-1.384 2.543-2.642 3.839-4.063.403-.44.629-.755.818-1.132.667.39 1.233.78 1.661 1.145zm8.459 8.477c.101-.1.176-.125.227-.125.05 0 .1.012.201.088 1.12.692 2.114 1.597 3.008 2.755.088.125.101.163.101.226 0 .075-.026.138-.151.239l-.919.78c-.101.088-.164.138-.214.138-.076 0-.138-.025-.214-.15-.805-1.158-1.825-2.19-2.857-2.881-.088-.063-.138-.1-.138-.151 0-.05.025-.088.1-.176l.844-.755.012.012zm23.612-5.899c.742 0 1.586-.012 2.278-.05.176-.013.201.075.214.239a9.53 9.53 0 010 1.195c-.013.201-.051.251-.252.239-.516 0-1.435-.013-2.177-.013h-.617c-.088 2.164-.428 3.422-1.158 4.642-.755 1.258-1.976 2.15-3.561 2.805-.214.088-.327.138-.428.138-.101 0-.164-.05-.29-.163-.453-.466-.742-.68-1.258-.906 2.139-.667 3.31-1.434 4.077-2.667.592-.968.831-2.012.894-3.849h-3.209v.541c0 .893 0 1.698.05 2.503.013.164-.088.202-.252.214-.39.025-.893.025-1.296 0-.201-.012-.289-.05-.277-.214.051-.78.076-1.522.076-2.478v-.578h-.453c-.818 0-2.026.05-2.492.075-.126 0-.164-.088-.176-.29-.063-.314-.076-.842-.101-1.458.629.05 1.611.075 2.781.075h.453V3.006c0-.968-.025-1.346-.176-2.214.78.076 1.523.151 1.838.24.163.025.226.1.226.213 0 .088-.05.202-.088.315-.101.276-.101.427-.101 1.446v1.107h3.247V2.63c.025-.843-.012-1.535-.126-2.063.579.063 1.41.151 1.762.252.214.05.277.125.277.239a.73.73 0 01-.063.276c-.1.29-.126.68-.126 1.334V4.1h.529l-.025.012zm17.344-1.17c.39-.012.591-.075.755-.176a.296.296 0 01.201-.063.4.4 0 01.239.088c.378.24.73.529 1.032.818.139.126.202.24.202.352 0 .126-.076.227-.176.315-.214.163-.365.377-.504.654-1.007 2.05-1.976 3.51-2.982 4.666-1.297 1.46-3.096 2.931-4.594 3.761a.38.38 0 01-.239.076c-.126 0-.227-.063-.352-.164-.378-.301-.844-.528-1.435-.691 2.353-1.296 3.549-2.252 5.021-3.85 1.196-1.333 1.888-2.352 2.794-4.289l-3.65.1c-1.233 1.523-1.988 2.39-2.856 3.095-.101.1-.214.164-.315.164a.344.344 0 01-.226-.088 4.124 4.124 0 00-1.448-.654c1.964-1.598 3.121-3.007 4.065-4.478.504-.843.73-1.309.894-2.038.856.302 1.434.553 1.762.805.1.075.151.163.151.252 0 .088-.051.176-.164.251-.151.088-.252.252-.377.403-.164.251-.315.478-.504.754l2.718-.063h-.012zm12.386 3.07c-.755 0-1.511.012-2.266.062-.138 0-.201-.088-.226-.289-.088-.377-.126-.93-.164-1.522.856.088 1.787.126 2.782.126h5.172c.252 0 .554-.025.805-.164.076-.063.139-.088.202-.088.075 0 .151.05.226.1.365.29.768.668 1.007.932.101.1.151.214.151.314a.39.39 0 01-.163.29c-.24.2-.353.364-.516.704-1.511 3.207-3.247 5.094-6.155 6.667-.125.063-.214.1-.302.1-.1 0-.214-.063-.327-.176-.403-.365-.893-.591-1.409-.78 2.794-1.295 5.248-3.383 6.343-6.29h-5.148l-.012.014zm1.006-3.233c-.679 0-1.434.012-2.063.063-.152 0-.202-.088-.214-.327-.051-.315-.076-.981-.076-1.447.919.088 1.372.1 2.479.1h2.719c.981 0 1.787-.05 2.366-.075.138 0 .176.076.176.24a9.33 9.33 0 010 1.182c0 .251-.05.314-.277.302-.503 0-1.208-.026-2.127-.026h-2.983V2.78zm21.246.616c-.353 2.566-.982 4.918-1.888 6.503-.654 1.133-1.435 1.736-2.567 1.736-1.334 0-2.668-1.421-2.668-3.874 0-1.447.616-2.83 1.699-3.924 1.271-1.27 2.869-1.938 4.908-1.938 3.624 0 5.751 2.227 5.751 5.233 0 2.805-1.585 4.566-4.644 5.497-.314.088-.453.025-.654-.277-.164-.251-.478-.604-1.057-.956 2.555-.604 4.556-1.66 4.556-4.515 0-1.8-1.36-3.497-3.386-3.497h-.063l.013.012zm-4.329 1.46c-.73.817-1.183 1.823-1.183 2.792 0 1.383.553 2.15 1.032 2.15.39 0 .73-.2 1.132-.917.667-1.22 1.347-3.397 1.599-5.397-1.058.214-1.901.63-2.58 1.371zm18.703-.328c-1.372 0-1.837.025-1.938.025-.151 0-.164-.012-.164-.163V3.346c0-.139.013-.151.164-.151.088 0 .554.025 1.938.025h3.549V2.15a63.105 63.105 0 01-3.41.164c-.311.009-.533-.125-.667-.402-.151-.327-.315-.616-.504-.83 1.863-.013 3.335-.1 4.934-.24 1.082-.1 1.988-.238 2.856-.402.579-.1.881-.176 1.309-.327.466.29.906.604 1.221.88.101.101.151.177.151.303 0 .1-.101.176-.315.176-.151 0-.453 0-.818.075-.855.176-1.9.315-3.209.466v1.22h3.7c1.372 0 1.838-.025 1.938-.025.151 0 .164.012.164.15v1.044c0 .151-.013.164-.164.164-.088 0-.554-.025-1.938-.025h-2.555c1.435 1.132 3.033 1.799 5.16 2.34-.226.289-.44.628-.604.968-.138.29-.176.403-.315.403-.075 0-.176-.05-.352-.101a13.812 13.812 0 01-1.409-.579v.025c0 .088-.026.529-.026 1.673v1.573c0 2.251.026 2.666.026 2.754 0 .139-.013.151-.177.151h-1.22c-.151 0-.164-.012-.164-.15v-.504h-5.537v.579c0 .138-.013.15-.164.15h-1.221c-.151 0-.163-.012-.163-.15 0-.1.025-.528.025-2.793V9.51c0-1.296-.025-1.749-.025-1.887a12.02 12.02 0 01-1.385.59c-.163.064-.289.101-.365.101-.125 0-.163-.1-.302-.377-.176-.327-.402-.667-.616-.88 2.013-.554 3.662-1.359 4.983-2.541h-2.391v.012zm3.662 2.566c-.138 0-.151-.012-.151-.163 0-.24.051-1.208.063-1.937-.893 1.031-1.963 1.824-3.133 2.44.277 0 .805.012 1.812.012h4.304c1.145 0 1.686-.012 1.9-.025-1.334-.666-2.492-1.484-3.385-2.44 0 .742.063 1.686.063 1.95 0 .15-.013.163-.164.163h-1.309zm-2.038 2.541h5.537V8.68h-5.537v.956zm5.537 2.252V10.83h-5.537v1.057h5.537zm13.694-10.856c.202.076.29.164.29.302 0 .088-.025.151-.101.24-.1.125-.176.326-.277.704-.214 1.031-.327 2.1-.427 2.88-.026.541-.076 1.12-.051 1.66.327-.59.655-1.157 1.057-1.936.139.452.29.73.466.98a.336.336 0 01.088.24c0 .125-.063.239-.151.377-.327.629-.68 1.27-.894 1.937a1.65 1.65 0 00-.075.453c0 .15-.063.214-.201.239-.177.05-.831.138-1.209.176-.1.013-.176-.088-.213-.201-.24-.654-.454-1.812-.454-3.057 0-1.006.164-2.251.365-3.76.063-.53.126-1.045.126-1.724.68.138 1.259.29 1.649.465l.012.025zm4.909-.251c.302.075.327.15.302.402-.025.214-.025.478-.025.692.1 1.434.213 2.805.213 3.887 0 2.138-.352 4-1.145 5.233-.591.93-1.535 1.824-2.492 2.427a.505.505 0 01-.302.101c-.1 0-.201-.05-.314-.164a3.503 3.503 0 00-1.284-.691c1.221-.68 1.963-1.22 2.567-2.025.881-1.195 1.271-2.428 1.271-4.818 0-1.07-.075-2.642-.176-3.61-.075-.742-.151-1.12-.314-1.648.667.025 1.283.063 1.724.176l-.025.038z" fill="#FEFBFC"/></svg>