<svg width="782" height="120" viewBox="0 0 782 120" fill="white" xmlns="http://www.w3.org/2000/svg"><path d="M56.666 118.412H1.77l8.728-9.014.211-.218V9.972l-.211-.219L1.77.75h44.387c15.644 0 27.308 10.636 27.308 24.62 0 4.583-1.202 8.172-3.31 11.226-2.119 3.071-5.178 5.64-8.954 8.133l-1.669 1.101 1.981.268c17.952 2.427 31.78 17.9 31.78 35.892 0 20.072-16.43 36.422-36.628 36.422zm-14.2-64.055l.196-.109h.018l.168-.09C54.87 47.612 63.096 36.37 63.096 26.046c0-11.364-5.267-17.505-11.102-20.77-5.776-3.23-12.05-3.616-14.136-3.653h0H20.58v70.253l1.43.318c4.136-8.835 13.337-13.924 20.453-17.837l.002-.001zM20.57 81.992l-.009.759h.019v34.786h36.075c8.296 0 14.883-4.607 19.364-11.317 4.475-6.701 6.893-15.55 6.893-24.23 0-9.3-2.631-17.836-6.978-24.22-4.345-6.383-10.441-10.66-17.36-11.303l-.258-.024-.218.14c-2.13 1.372-7.497 4.212-10.776 5.939h0l-.007.003c-.408.22-.788.422-1.115.595-.328.174-.601.319-.795.425l-.34.179h0l-.007.004-.069.037c-5.572 3.016-11.615 6.287-16.28 10.657-4.713 4.415-8.055 9.983-8.14 17.57zm98.007 26.884v.304l.212.218 8.736 9.013H99.768l8.736-9.013.212-.218V14.328l-.336-.222-8.617-5.709 18.814-5.91v106.389zM221.899 76.1c0 23.79-19.183 43.15-42.735 43.15-23.766 0-43.071-18.713-43.071-42.483 0-23.793 18.992-43.15 42.735-43.15 23.766 0 43.071 18.713 43.071 42.483zm-49.686-40.103c-7.692 0-14.237 3.304-18.844 8.959-4.598 5.643-7.241 13.593-7.241 22.88 0 12.368 4.885 24.6 12.249 33.742 7.355 9.131 17.272 15.282 27.392 15.282 7.692 0 14.237-3.305 18.844-8.959 4.598-5.644 7.241-13.593 7.241-22.88 0-12.369-4.885-24.6-12.249-33.742-7.355-9.131-17.272-15.282-27.392-15.282zM321.572 76.1c0 23.79-19.183 43.15-42.735 43.15-23.766 0-43.071-18.713-43.071-42.483 0-23.793 18.992-43.15 42.735-43.15 23.766 0 43.071 18.713 43.071 42.483zm-49.686-40.103c-7.692 0-14.237 3.304-18.844 8.959-4.598 5.643-7.241 13.593-7.241 22.88 0 12.368 4.885 24.6 12.249 33.742 7.355 9.131 17.272 15.282 27.392 15.282 7.692 0 14.237-3.305 18.844-8.959 4.598-5.644 7.241-13.593 7.241-22.88 0-12.369-4.885-24.6-12.249-33.742-7.355-9.131-17.272-15.282-27.392-15.282zm74.838-1.322v12.441L348 45.857c6.2-6.113 13.862-11.908 24.473-11.908 9.758 0 18.129 5.538 22.056 14.553l.457 1.05.78-.839c7.303-7.854 15.577-14.764 27.225-14.764 6.173 0 12.353 2.223 16.989 6.908 4.63 4.679 7.779 11.873 7.779 21.925v46.408l.211.218 8.735 9.003H428.95l8.735-9.003.212-.218V62.105c0-7.406-2.048-13.949-5.503-18.66-3.461-4.718-8.35-7.611-13.966-7.611-7.035 0-14.291 4.735-22.77 14.452l-.28.32.131.404c1.163 3.585 1.752 7.537 1.752 11.772v46.408l.212.218 8.735 9.003h-27.755l8.735-9.003.212-.218V62.105c0-7.406-2.048-13.949-5.503-18.66-3.461-4.718-8.35-7.611-13.966-7.611-6.476 0-13.535 4.325-20.972 12.511l-.195.215v60.629l.212.218 8.735 9.003h-27.796l8.735-9.003.212-.218V46.517l-.336-.223-8.616-5.708 18.814-5.91zm161.732 47.859v-.166l-.07-.15-33.543-72.157-.053-.114-.088-.091L465.888.75h29.203l-8.593 8.884-.36.372.22.469 30.897 65.588.694 1.472.669-1.484 29.558-65.578.212-.468-.361-.366L539.269.75h19.228l-8.811 9.272-.089.094-.052.118-31.181 69.963-.065.146v29.529l.23.222 8.671 8.328h-27.661l8.706-9.015.211-.218V82.534zm39.584-5.771c0-23.795 19.136-43.154 42.625-43.154 23.703 0 42.96 18.713 42.96 42.487 0 23.797-18.945 43.154-42.625 43.154-23.703 0-42.96-18.713-42.96-42.487zm49.559 40.107c7.674 0 14.203-3.306 18.798-8.961 4.586-5.644 7.223-13.594 7.223-22.88 0-12.37-4.872-24.603-12.218-33.746C604.066 42.152 594.173 36 584.077 36c-7.674 0-14.203 3.306-18.798 8.96-4.587 5.645-7.223 13.595-7.223 22.882 0 12.37 4.872 24.602 12.217 33.745 7.337 9.131 17.23 15.284 27.326 15.284zm107.327-70.741l-8.596-5.71 18.764-5.91v83.913h-4.656l-5.193-11.462-.428-.945-.763.702c-7.951 7.314-15.419 12.039-26 12.039-6.742 0-13.723-2.276-19.01-7.022-5.271-4.731-8.907-11.962-8.907-21.986V46.351l-.335-.222-8.596-5.71 18.764-5.91v55.744c0 16.464 11.603 26.446 22.98 26.446 8.778 0 15.89-6.033 22.086-12.34l.215-.219V47.504h1.745l-2.07-1.375zm26.843-5.71l18.764-5.91v16.316l1.465.227c1.785-5.62 5.196-9.311 10.049-11.85 4.845-2.537 11.138-3.93 18.716-4.886l-2.464 11.127c-5.442-.177-10.371.282-14.504 1.318-4.157 1.041-7.558 2.679-9.849 4.888l-.002.001c-2.249 2.178-3.411 4.857-3.411 7.936v49.603l.211.218 8.714 9.005h-27.682l8.713-9.005.211-.218V46.351l-.335-.223-8.596-5.71z" stroke="#FEFBFC" stroke-width="1.5"/></svg>