<svg width="608" height="162" viewBox="0 0 608 162" fill="none" xmlns="http://www.w3.org/2000/svg"><path d="M123.615 120.363H95.421l8.877-9.173.211-.218V14.727l-1.434-.309-40.716 90.15-.067.147v15.648H59.09L13.2 20.371l-1.431.313v90.288l.21.218 8.877 9.173H1.77l8.877-9.173.211-.218V15.468l-.084-.162L3.213.75H14.06l47.17 101.147.692 1.484.671-1.494 41.046-91.258.209-.464-.354-.365L94.741.75h28.873l-8.875 9.162-.212.219v100.841l.211.218 8.877 9.173zm88.222-30.316h1.648c-.659 7.563-4.186 15.142-9.708 20.807h-.001c-4.589 4.715-12.791 10.362-25.775 10.362-22.743 0-46.087-15.897-46.087-42.333 0-25.108 19.056-44.735 43.336-44.735 15.866 0 29.348 7.066 38.051 19.913h-66.493l-.215.382c-3.088 5.495-4.65 11.807-4.65 18.782 0 22.813 17.63 42.969 37.943 42.969 14.006 0 30.108-8.123 31.951-26.147zm-13.21-36.89h1.08l-.378-1.012c-3.533-9.46-12.196-15.03-23.214-15.03-11.198 0-20.251 4.893-27.597 14.847l-.882 1.195h50.991zm148.078 58.044l8.876 9.173h-28.195l8.868-9.174.211-.218V63.129c0-7.526-2.078-14.173-5.582-18.96-3.509-4.792-8.465-7.731-14.156-7.731-7.128 0-14.481 4.81-23.077 14.686l-.278.32.13.403c1.179 3.656 1.777 7.675 1.777 11.97v47.166l.211.218 8.876 9.173h-28.193l8.876-9.173.211-.218V63.129c0-7.526-2.078-14.173-5.582-18.96-3.508-4.792-8.465-7.731-14.156-7.731-6.572 0-13.715 4.394-21.254 12.714l-.194.214v61.606l.211.218 8.877 9.173h-28.194l8.877-9.173.211-.218V47.281l-.335-.222-8.758-5.817 19.121-6.02v12.635l1.278-1.263c6.286-6.215 14.046-12.107 24.817-12.107 9.896 0 18.376 5.63 22.36 14.8l.457 1.053.781-.843c7.393-7.984 15.795-15.01 27.607-15.01 6.26 0 12.528 2.26 17.231 7.025 4.648 4.71 7.824 11.926 7.888 21.985l-.009.01v47.475l.211.218zm94.652-24.78v-.75h-.016c-.192-12.312-5.094-24.434-12.41-33.54-7.454-9.279-17.506-15.53-27.763-15.53-7.795 0-14.428 3.359-19.096 9.104-4.659 5.733-7.339 13.81-7.339 23.247 0 12.57 4.954 25 12.421 34.29 7.457 9.279 17.512 15.53 27.768 15.53 7.796 0 14.428-3.358 19.096-9.103 4.66-5.734 7.339-13.81 7.339-23.248zm-76.817-8.4c0-24.191 19.454-43.873 43.335-43.873 24.098 0 43.676 19.024 43.676 43.195 0 24.193-19.261 43.873-43.336 43.873-24.097 0-43.675-19.025-43.675-43.195zm115.347-25.833l1.28 1.278v-1.734c1.822-5.636 5.274-9.348 10.17-11.91 4.929-2.579 11.332-3.995 19.037-4.967l-2.51 11.335c-5.524-.181-10.534.285-14.735 1.338-4.224 1.059-7.681 2.722-10.008 4.966l-.001.001c-2.284 2.211-3.463 4.93-3.463 8.056v50.421l.211.218 8.876 9.173h-28.193l8.876-9.173.211-.218V47.117l-.335-.223-8.758-5.817 19.122-6.02v16.442l-.113.357.323.322.01.01zM586.72 34.99h19.26l-8.96 9.266-.103.106-.055.138-46.04 115.906h-2.209l14.923-37.589.014-.035.01-.036c.906-3.188.221-6.861-.632-9.653a33.39 33.39 0 00-1.293-3.498 28.807 28.807 0 00-.604-1.298l-.037-.074-.005-.01-29.418-63.73-.053-.115-.089-.092-8.97-9.276h29.091l-8.753 9.05-.358.37.216.466 27.22 58.847.725 1.568.651-1.601 23.892-58.836.177-.438-.318-.35-8.282-9.086z" opacity=".5" stroke="#FEFBFC" stroke-width="1.5"/></svg>