<svg width="80" height="42" viewBox="0 0 80 42" fill="none" xmlns="http://www.w3.org/2000/svg"><g clip-path="url(#clip0_368_120750)" fill="#FEFBFC"><path d="M.837 41.644c11.84-.13 23.666-.648 35.51-.558 5.933.047 11.86.216 17.796.256 8.334.053 16.694-.326 25.02-.03 1.117.04 1.114-1.341 0-1.381-8.326-.3-16.686.083-25.02.03-5.933-.04-11.883-.097-17.816-.14-11.844-.09-23.65.316-35.49.445-1.117.013-1.12 1.391 0 1.381v-.003zm-.16-19.071L.473 3.755v-.256C.473 1.942.64.953.967.528a.751.751 0 01.62-.319c1.403 0 2.5.664 3.29 1.996.79 1.33 1.183 3.618 1.183 5.713 0 1.318-.237 3.26-.707 4.675-.47 1.414-1.033 2.47-1.686 3.164 1.203 1.189 2.06 2.7 2.576 4.535.514 1.833.774 3.755.774 5.764 0 1.063-.18 2.151-.54 3.27-.36 1.12-.72 2.009-1.084 2.676a5.245 5.245 0 01-1.42 1.677c-.586.451-1.23.68-1.933.68h-.117C1 34.36.537 33.999.537 33.278l.143-10.7-.003-.004zm1.816-19.9c-.28 0-.42.52-.42 1.56s.02 3.25.057 5.482c.04 2.23.057 4.422.057 5.428.51-.17.946-.794 1.313-1.87.297-.906.543-2.357.737-3.197.193-.843.316-1.36.376-1.56v-1.55c0-.85-.213-2.258-.643-3.072-.427-.813-.92-1.221-1.48-1.221h.003zm2.15 27.42c.557-1.105.837-2.377.837-3.821 0-1.444-.083-2.716-.247-3.812-.163-1.095-.343-1.925-.54-2.483a6.696 6.696 0 00-.686-1.434c-.317-.482-.464-.69-.78-.87-.317-.18-1.054-.309-1.054-.309.097 4.007.144 9.12.144 14.725.99-.226 1.763-.893 2.323-1.996h.003zm13.834-9.794l-.26 5.498v.193a16.874 16.874 0 00-.187 2.613c0 .936-.11 1.835-.333 2.705a7.29 7.29 0 01-1.01 2.315c-.454.67-.947 1.009-1.487 1.009-.54 0-1.03-.27-1.47-.807-.443-.538-.807-1.228-1.097-2.072-.29-.843-.543-1.846-.763-3.014a44.048 44.048 0 01-.513-3.42 77.992 77.992 0 01-.297-3.516c-.117-1.883-.17-3.343-.167-4.386.004-1.039 0-1.932-.006-2.676-.01-.743-.02-.836-.03-1.43v-2.146c.01-.836.026-1.587.05-2.25.023-.665.066-1.385.13-2.155.063-.77.143-1.451.236-2.039a15.11 15.11 0 01.39-1.73c.174-.58.367-1.055.577-1.424.48-.82 1.033-1.232 1.66-1.232s1.16.166 1.6.498c.443.332.817.867 1.117 1.604.303.737.566 1.45.793 2.145.227.694.403 1.66.533 2.898.13 1.239.234 2.241.31 3.005.077.78.13 1.889.16 3.333.04 1.94.057 2.879.057 3.968v2.506l.007.007zM15.857 4.96c-.197-.743-.444-1.318-.737-1.72-.293-.405-.583-.703-.873-.703-.29 0-.527.249-.714.544-.186.299-.346.717-.476 1.265a23.66 23.66 0 00-.347 1.753c-.1.624-.177 1.341-.23 2.155-.053.813-.1 1.554-.137 2.218-.03.65-.053 1.374-.073 2.164-.02 1.318-.033 1.767-.043 2.504v.192c0 1.94.1 4.03.303 6.275.203 2.245.41 4.08.627 5.512.216 1.43.506 2.642.873 3.642.367.999.773 1.802 1.227 1.802.393 0 .726-.85.996-1.942.27-1.105.464-2.463.577-4.077.193-2.888.29-4.917.297-6.082.003-1.169.003-2.022 0-2.56a165.99 165.99 0 00-.044-2.347c-.023-1.026-.063-1.415-.123-2.311-.057-.9-.133-1.893-.223-2.985a32.103 32.103 0 00-.36-2.908c-.15-.85-.324-1.647-.52-2.39zm9.816 2.792l-.056 5.605.26 10 .246 8.785c0 1.414-.283 2.125-.85 2.125-.326 0-.566-.226-.72-.681a4.677 4.677 0 01-.23-1.507l.23-7.915c0-1.501-.066-3.759-.203-6.773-.133-3.015-.203-5.273-.203-6.773l.043-3.802c0-2.082-.113-3.818-.297-4.442l-1.483.272c-.25 0-.593 0-.79-.219-.197-.22-.273-.262-.273-.61 0-.35.236-.642.706-.88.48-.256 1.057-.439 1.73-.552 1.184-.2 2.18-.299 2.987-.299.24 0 .46.117.657.352.196.233.296.528.296.88s-.153.432-.28.515c-.223.15-1.666.285-1.666.285-.134 0-.237.007-.304.02.124 1.547.204 3.592.204 5.614h-.004zm11.57 26.621c-.606 0-.91-.375-.91-1.126v-6.852c-.226-.22-.73-.29-1.503-.246-.76.043-1.45.176-2.017.242-.143.684-.3.933-.43 1.896-.13.963-.263 1.932-.403 2.909-.14.976-.323 2.141-.557 2.709-.32.624-1.57.196-1.273-1.395.217-.783.68-3.333 1.287-8.556.606-5.222 1.103-9.312 1.493-12.264.39-2.952.79-6.089 1.24-8.101.453-2.009.907-3.035 1.317-3.101.43-.066.82.01.936.465.064.906.214 4.489.6 9.047.384 4.559.577 7.507.577 8.845 0 1.338.103 3.559.31 6.667.207 3.107.31 5.833.31 7.39 0 .976-.327 1.464-.98 1.464l.003.007zm-1.24-14.589c-.173-2.57-.33-5.016-.47-7.347-.14-2.327-.23-4.396-.23-4.884 0-.488.004-1.122.014-1.195-.234.465-.73 4.077-1.314 8.805-.583 4.728-.893 8.117-.93 9.376.657.006 1.454-.067 2.004-.136.553-.07 1-.206 1.23-.29-.03-.58-.13-1.759-.304-4.329zm6.43-9.146l.204-7.985v-.276c0-1.444.216-2.165.65-2.165.393 0 .923 1.345 1.586 4.034 1.214 4.884 4.587 24.692 4.587 24.692l-.087-15.455s-.383-11.577-.406-12.308c-.024-.73.356-1.092.886-1.092s.697.12.697 1.335c0 0 .013.843.013 1.341l.21 16.076v13.294c0 .438-.083.76-.246 1.181-.164.425-.427.528-.75.465-.407-.076-1.077-2.699-2.28-8.668a660.605 660.605 0 01-3.564-19.25V20.13c0 1.387.07 3.453.21 6.202.14 2.745.21 4.814.21 6.201 0 .27-.11.492-.333.671-.22.176-.503.266-.843.266-.34 0-.514-.226-.514-.68l.144-3.122c0-1.5-.064-3.934-.187-7.304-.127-3.37-.187-5.428-.187-6.179v-5.547zm16.42-8.507l-.596.093a.729.729 0 00-.397.273c-.09.12-.137.823-.137 1.178 0 2.832.12 7.072.36 12.72.24 5.647.36 10.465.36 13.297v2.403c.474.01 1.834.083 1.834.837 0 0-.024.684-.737.9-.247.073-2.007.106-2.007.106-1.703 0-2.55-.23-2.55-1.092-.003-.399.2-.681.707-.754l.807-.053c.29 0 .433-.608.433-1.288 0-2.238-.09-6.269-.273-10.734-.184-4.466-.274-7.819-.274-10.053l.057-4.44c0-.932-.023-2.094-.073-2.775-.26.126-.554.093-.757.093-.463 0-.63-.043-.63-.737 0-.355.187-.624.483-.887.297-.262.85-.444 1.29-.557.827-.213 1.224-.213 1.62-.213.397 0 .687.116.857.352.173.233.26.389.26.707 0 .32-.12.508-.643.628l.006-.003zm4.754 30.612c0-.658.22-.996.663-.996.22 0 .513.11.873.328.36.22.674.329.937.329s.55-.249.86-.744c.307-.494.547-1.112.72-1.846.357-1.5.533-2.855.533-4.067 0-1.212-.143-2.51-.433-3.898a33.548 33.548 0 00-1.053-3.907 527.656 527.656 0 00-1.257-3.652c-1-2.902-1.497-5.548-1.487-7.942-.01-2.264.477-4.04 1.457-5.329C65.94.34 66.55 0 67.253 0c.357 0 .704.146 1.04.435.337.289.647.72.707 1.135.06.415-.047 1.006-.623.927-.72-.103-.744-.502-1.037-.415-.367.056-.683.312-.953.763-.49.837-.737 1.866-.737 3.091s.107 2.417.317 3.58c.21 1.161.476 2.2.793 3.12.317.92.66 1.92 1.023 2.995.377 1.076.72 2.108 1.04 3.1.74 2.295 1.11 4.772 1.11 7.435a14.915 14.915 0 01-.966 5.395c-.307.82-.73 1.497-1.27 2.028-.54.532-1.14.797-1.804.797-.713 0-1.283-.345-1.693-.657-.41-.312-.6-.624-.6-.98l.007-.006zM77.6 8.174l-.057 5.604.26 10 .247 7.816c0 1.414-.283 2.7-.85 2.7-.327 0-.567-.227-.72-.681-.153-.452-.23-1.531-.23-2.085l.23-6.943c0-1.5-.067-3.758-.203-6.773-.134-3.014-.204-5.272-.204-6.773l.044-3.801c0-2.082-.09-3.948-.274-4.569 0 0-1.873.117-2.19-.01-.273-.11-.38-.239-.38-.587 0-.349.23-.571.704-.81.48-.256 1.063-.346 1.736-.459C76.897.604 77.893.505 78.7.505c.24 0 .46.116.657.348.196.233.296.528.296.88-.256.614-.776.475-1.07.531h-.876c-.134 0-.237.007-.304.02.134 1.67.204 3.988.204 5.883l-.007.007z"/></g><defs><clipPath id="clip0_368_120750"><path fill="#fff" d="M0 0h80v41.644H0z"/></clipPath></defs></svg>