<svg width="70" height="37" viewBox="0 0 70 37" fill="none" xmlns="http://www.w3.org/2000/svg"><g clip-path="url(#clip0_368_124424)" fill="#520A4E"><path d="M.732 36.438c10.36-.113 20.708-.566 31.071-.488 5.192.041 10.378.19 15.572.224 7.292.047 14.607-.285 21.893-.026.977.035.974-1.174 0-1.209-7.286-.261-14.6.073-21.893.026-5.191-.034-10.398-.084-15.59-.122-10.362-.078-20.693.276-31.053.39-.977.011-.98 1.217 0 1.208v-.003zm-.14-16.686L.414 3.286v-.224c0-1.363.146-2.228.432-2.6a.657.657 0 01.542-.279c1.228 0 2.188.581 2.88 1.746.69 1.165 1.035 3.167 1.035 5 0 1.153-.208 2.852-.619 4.09-.411 1.238-.904 2.161-1.476 2.768 1.053 1.04 1.803 2.362 2.255 3.969.45 1.603.677 3.285.677 5.043 0 .93-.158 1.883-.473 2.861-.315.98-.63 1.758-.948 2.342a4.589 4.589 0 01-1.242 1.467c-.514.395-1.077.596-1.692.596h-.102c-.808 0-1.213-.317-1.213-.947l.125-9.363-.003-.003zm1.59-17.413c-.245 0-.368.456-.368 1.365 0 .91.018 2.844.05 4.796.035 1.953.05 3.87.05 4.75.446-.148.828-.694 1.149-1.636.26-.793.475-2.062.644-2.797.17-.738.277-1.191.33-1.365V6.095c0-.744-.187-1.976-.563-2.687-.374-.712-.805-1.07-1.295-1.07h.003zm1.88 23.993c.488-.968.733-2.08.733-3.344 0-1.264-.073-2.377-.216-3.335-.143-.959-.3-1.685-.472-2.173a5.863 5.863 0 00-.601-1.255c-.277-.421-.406-.604-.683-.761-.277-.157-.921-.27-.921-.27.084 3.506.125 7.98.125 12.884.866-.198 1.543-.782 2.033-1.746h.003zm12.105-8.57l-.227 4.81v.169a14.743 14.743 0 00-.164 2.286c0 .82-.096 1.607-.291 2.368a6.38 6.38 0 01-.884 2.025c-.397.586-.829.883-1.301.883-.473 0-.901-.236-1.286-.706-.388-.47-.706-1.075-.96-1.813s-.475-1.615-.668-2.638a38.517 38.517 0 01-.449-2.992 68.182 68.182 0 01-.26-3.076c-.102-1.648-.148-2.926-.145-3.838.003-.91 0-1.69-.006-2.341-.009-.651-.018-.732-.026-1.252V9.77c.008-.732.023-1.389.043-1.97.02-.58.059-1.211.114-1.885.056-.674.126-1.27.207-1.784.085-.514.199-1.02.341-1.514a6.02 6.02 0 01.505-1.246c.42-.717.904-1.078 1.452-1.078.549 0 1.015.146 1.4.436.389.29.715.758.978 1.403.265.645.496 1.27.694 1.877.198.607.353 1.453.466 2.536.114 1.084.205 1.961.272 2.63.067.682.114 1.652.14 2.916.035 1.697.05 2.519.05 3.472v2.193l.005.006zM13.875 4.34c-.172-.65-.388-1.153-.645-1.505-.257-.354-.51-.616-.764-.616s-.461.218-.624.477c-.164.261-.304.627-.417 1.107-.114.476-.216.987-.304 1.534a20.537 20.537 0 00-.201 1.885c-.047.712-.088 1.36-.12 1.94-.026.57-.046 1.203-.064 1.895-.017 1.153-.029 1.545-.038 2.19v.169c0 1.696.088 3.526.266 5.49.178 1.964.359 3.57.548 4.823.19 1.252.444 2.312.764 3.187.321.874.677 1.577 1.074 1.577.344 0 .636-.744.872-1.7.236-.967.405-2.155.504-3.567.17-2.527.254-4.302.26-5.322a269.2 269.2 0 000-2.24 152.02 152.02 0 00-.038-2.054c-.02-.897-.056-1.237-.108-2.022a147.94 147.94 0 00-.195-2.611 28.055 28.055 0 00-.315-2.545 25.562 25.562 0 00-.455-2.092zm8.589 2.443l-.05 4.904.228 8.75.216 7.687c0 1.238-.248 1.86-.744 1.86-.286 0-.496-.198-.63-.596a4.09 4.09 0 01-.201-1.32l.201-6.925c0-1.313-.058-3.288-.178-5.926-.116-2.638-.178-4.614-.178-5.927l.038-3.326c0-1.821-.099-3.34-.26-3.887l-1.297.238c-.219 0-.52 0-.692-.191-.172-.192-.239-.23-.239-.535 0-.305.207-.56.619-.77.42-.223.924-.383 1.513-.482 1.036-.174 1.908-.261 2.614-.261.21 0 .402.101.574.307.172.204.26.462.26.77s-.134.378-.245.45c-.196.131-1.458.25-1.458.25-.117 0-.207.006-.266.018.108 1.354.178 3.143.178 4.912h-.003zm10.124 23.293c-.53 0-.796-.328-.796-.985v-5.996c-.199-.191-.64-.252-1.316-.215-.665.038-1.268.154-1.764.212-.126.599-.263.817-.377 1.66-.113.842-.23 1.69-.352 2.544-.123.854-.283 1.874-.488 2.37-.28.547-1.373.172-1.114-1.22.19-.685.595-2.916 1.126-7.486.53-4.57.965-8.149 1.307-10.731.341-2.583.691-5.328 1.085-7.089.396-1.757.793-2.655 1.152-2.713.376-.058.717.009.82.407.055.793.186 3.927.524 7.916.336 3.989.505 6.569.505 7.74 0 1.17.09 3.113.271 5.833.181 2.719.272 5.104.272 6.466 0 .854-.286 1.281-.858 1.281l.003.006zm-1.085-12.765a880.93 880.93 0 01-.411-6.429c-.123-2.036-.202-3.846-.202-4.273 0-.427.003-.982.012-1.046-.204.407-.639 3.568-1.15 7.705-.51 4.136-.78 7.102-.813 8.203a14.05 14.05 0 001.753-.119c.484-.06.875-.18 1.076-.252-.026-.509-.113-1.54-.265-3.789zm5.627-8.003l.177-6.987V2.08c0-1.264.19-1.894.569-1.894.344 0 .808 1.176 1.388 3.53 1.062 4.273 4.014 21.605 4.014 21.605l-.076-13.524s-.336-10.13-.356-10.769c-.02-.639.312-.955.776-.955.463 0 .61.104.61 1.167 0 0 .01.738.01 1.174l.185 14.066v11.632c0 .384-.073.666-.216 1.035-.143.372-.373.462-.656.406-.356-.067-.943-2.361-1.995-7.585a577.615 577.615 0 01-3.118-16.843v12.488c0 1.215.06 3.022.183 5.427.123 2.403.184 4.213.184 5.427 0 .235-.096.43-.291.587-.193.154-.44.232-.738.232s-.45-.198-.45-.596l.126-2.73c0-1.313-.056-3.443-.164-6.391-.11-2.95-.163-4.75-.163-5.407V9.308zm14.367-7.443l-.522.081a.638.638 0 00-.348.239c-.078.104-.119.72-.119 1.03 0 2.479.105 6.189.315 11.13.21 4.942.315 9.157.315 11.635v2.103c.414.01 1.604.073 1.604.732 0 0-.02.599-.645.788-.215.064-1.755.093-1.755.093-1.49 0-2.231-.2-2.231-.956-.003-.349.175-.596.618-.66l.706-.046c.253 0 .379-.532.379-1.127 0-1.958-.079-5.485-.24-9.392-.16-3.908-.238-6.842-.238-8.797l.049-3.884c0-.816-.02-1.833-.064-2.429-.228.11-.484.082-.662.082-.406 0-.551-.038-.551-.645 0-.311.163-.546.423-.776.259-.23.743-.39 1.128-.488.724-.186 1.07-.186 1.418-.186.347 0 .6.102.75.308.151.203.227.34.227.619 0 .279-.105.444-.563.549l.006-.003zm4.159 26.785c0-.575.192-.872.58-.872.193 0 .45.096.764.288.315.192.59.288.82.288.23 0 .481-.218.752-.651.269-.433.479-.973.63-1.615.313-1.314.467-2.499.467-3.56 0-1.06-.125-2.195-.379-3.41a29.299 29.299 0 00-.922-3.419 402.74 402.74 0 00-1.1-3.196c-.874-2.539-1.309-4.854-1.3-6.949-.009-1.98.417-3.535 1.274-4.662.456-.596.99-.892 1.605-.892.312 0 .615.128.91.38.294.253.566.631.618.994.053.363-.04.88-.545.81-.63-.09-.65-.438-.907-.363-.321.05-.598.274-.835.669-.428.732-.644 1.632-.644 2.704 0 1.072.093 2.115.277 3.132.184 1.017.417 1.926.694 2.73.277.805.578 1.68.895 2.621.33.941.63 1.845.91 2.713.648 2.008.972 4.175.972 6.505a13.046 13.046 0 01-.846 4.72c-.268.718-.639 1.31-1.111 1.776-.473.464-.998.697-1.578.697-.624 0-1.123-.302-1.482-.575-.359-.273-.525-.547-.525-.857l.006-.006zM67.9 7.152l-.05 4.904.228 8.75.216 6.839c0 1.237-.248 2.361-.744 2.361-.286 0-.496-.197-.63-.595-.134-.395-.201-1.34-.201-1.824l.201-6.075c0-1.313-.058-3.288-.178-5.926-.117-2.638-.178-4.614-.178-5.927l.038-3.326c0-1.821-.079-3.454-.24-3.997 0 0-1.638.101-1.915-.009-.24-.096-.333-.21-.333-.514 0-.305.201-.5.616-.71.42-.223.93-.301 1.52-.4 1.035-.174 1.907-.261 2.612-.261.21 0 .403.101.575.305.172.203.26.461.26.77-.225.537-.68.415-.937.464h-.767c-.116 0-.207.006-.265.018.117 1.46.178 3.489.178 5.147l-.006.006z"/></g><defs><clipPath id="clip0_368_124424"><path fill="#fff" d="M0 0h70v36.438H0z"/></clipPath></defs></svg>